<svg width="727" height="131" viewBox="0 0 727 131" fill="none" xmlns="http://www.w3.org/2000/svg">
<path d="M128.293 100.111L139.884 30.2924H154.645L149.873 59.0992H179.839L184.611 30.2924H199.339L187.748 100.111H173.02L177.793 71.2697H147.827L143.055 100.111H128.293ZM207.418 30.2924H223.952L234.895 60.3606H235.645L256.475 30.2924H273.009L240.077 75.4288L235.952 100.111H221.293L225.418 75.4288L207.418 30.2924ZM269.481 100.111L281.072 30.2924H308.617C313.89 30.2924 318.219 31.3038 321.606 33.3265C325.015 35.3265 327.401 38.1106 328.765 41.6788C330.151 45.2242 330.469 49.3151 329.719 53.9515C328.947 58.6106 327.265 62.7129 324.674 66.2583C322.106 69.781 318.765 72.531 314.651 74.5083C310.537 76.4856 305.787 77.4742 300.401 77.4742H282.844L284.787 65.6447H299.958C302.822 65.6447 305.265 65.156 307.287 64.1788C309.333 63.1788 310.958 61.8038 312.162 60.0538C313.367 58.281 314.151 56.247 314.515 53.9515C314.901 51.6106 314.776 49.5765 314.14 47.8492C313.503 46.122 312.333 44.781 310.628 43.8265C308.947 42.8492 306.685 42.3606 303.844 42.3606H293.89L284.242 100.111H269.481ZM331.637 100.111L343.228 30.2924H390.273L388.228 42.4629H355.944L353.216 59.0992H383.08L381.035 71.2697H351.171L348.444 87.9401H380.864L378.819 100.111H331.637ZM390.418 100.111L402.009 30.2924H429.555C434.827 30.2924 439.168 31.2242 442.577 33.0879C446.009 34.9515 448.418 37.5992 449.805 41.031C451.214 44.4401 451.543 48.4629 450.793 53.0992C450.02 57.7356 448.35 61.7129 445.782 65.031C443.236 68.3492 439.918 70.906 435.827 72.7015C431.759 74.4742 427.043 75.3606 421.68 75.3606H403.236L405.282 63.497H421.305C424.123 63.497 426.532 63.1106 428.532 62.3379C430.532 61.5651 432.111 60.406 433.27 58.8606C434.452 57.3151 435.225 55.3947 435.589 53.0992C435.975 50.7583 435.839 48.8038 435.18 47.2356C434.52 45.6447 433.327 44.4401 431.6 43.622C429.873 42.781 427.6 42.3606 424.782 42.3606H414.827L405.18 100.111H390.418ZM433.373 68.3379L445.475 100.111H429.18L417.452 68.3379H433.373ZM453.981 100.111L465.572 30.2924H493.526C498.662 30.2924 502.822 31.0538 506.003 32.5765C509.208 34.0992 511.447 36.2129 512.719 38.9174C513.992 41.5992 514.333 44.6901 513.742 48.1901C513.265 50.9174 512.299 53.3038 510.844 55.3492C509.412 57.3947 507.64 59.0765 505.526 60.3947C503.412 61.7129 501.117 62.6447 498.64 63.1901L498.503 63.872C501.14 63.9856 503.515 64.7356 505.628 66.122C507.742 67.4856 509.322 69.4174 510.367 71.9174C511.412 74.4174 511.651 77.3833 511.083 80.8151C510.469 84.5197 509.003 87.8265 506.685 90.7356C504.367 93.622 501.276 95.9061 497.412 97.5879C493.572 99.2697 489.037 100.111 483.81 100.111H453.981ZM470.787 88.0424H482.822C486.912 88.0424 490.037 87.247 492.197 85.656C494.356 84.0651 495.651 81.9629 496.083 79.3492C496.378 77.4174 496.185 75.7129 495.503 74.2356C494.844 72.7583 493.719 71.5992 492.128 70.7583C490.56 69.9174 488.572 69.497 486.162 69.497H473.822L470.787 88.0424ZM475.526 59.5083H486.469C488.469 59.5083 490.322 59.156 492.026 58.4515C493.753 57.7242 495.174 56.7015 496.287 55.3833C497.424 54.0424 498.14 52.4629 498.435 50.6447C498.844 48.0992 498.276 46.0651 496.731 44.5424C495.208 42.997 492.822 42.2242 489.572 42.2242H478.39L475.526 59.5083ZM572.165 30.2924H586.927L579.427 75.6333C578.586 80.7242 576.643 85.1788 573.597 88.997C570.552 92.8151 566.677 95.7924 561.972 97.9288C557.268 100.042 552.018 101.099 546.222 101.099C540.427 101.099 535.54 100.042 531.563 97.9288C527.586 95.7924 524.711 92.8151 522.938 88.997C521.165 85.1788 520.699 80.7242 521.54 75.6333L529.04 30.2924H543.802L536.472 74.372C536.063 77.031 536.268 79.3947 537.086 81.4629C537.927 83.531 539.313 85.156 541.245 86.3379C543.177 87.5197 545.563 88.1106 548.404 88.1106C551.268 88.1106 553.859 87.5197 556.177 86.3379C558.518 85.156 560.438 83.531 561.938 81.4629C563.461 79.3947 564.427 77.031 564.836 74.372L572.165 30.2924ZM613.833 30.2924L602.242 100.111H587.481L599.072 30.2924H613.833ZM614.387 100.111L625.978 30.2924H640.739L631.194 87.9401H661.126L659.08 100.111H614.387ZM667.023 42.4629L669.069 30.2924H726.41L724.364 42.4629H702.989L693.444 100.111H678.853L688.398 42.4629H667.023Z" fill="white"></path>
<path d="M81.9342 30.1066L105.589 30.1106L72.9384 68.2606L59.0884 57.1106L81.9342 30.1066Z" fill="white"></path>
<path d="M93.2918 60.6108L116.634 60.6108L82.1345 100.612L59.1346 100.612L93.2918 60.6108Z" fill="white"></path>
<path d="M44.7453 30.1064L68.2884 30.1064L34.0884 70.1076L10.5881 70.1076L44.7453 30.1064Z" fill="white"></path>
<path d="M52.9984 64.1806L66.7884 75.5106L45.5884 100.612L21.7454 100.612L52.9984 64.1806Z" fill="white"></path>
</svg>