<svg xmlns="http://www.w3.org/2000/svg" viewBox="0 0 1200 420" width="1200" height="420">
  <defs>
    <radialGradient id="hubGlow" cx="50%" cy="50%" r="50%">
      <stop offset="0%" stop-color="#2F6CFF" stop-opacity="0.34"></stop>
      <stop offset="100%" stop-color="#2F6CFF" stop-opacity="0"></stop>
    </radialGradient>
  </defs>
  <g stroke="rgba(255,255,255,0.1)" stroke-width="1">
    <line x1="70" y1="210" x2="150" y2="120"></line><line x1="70" y1="210" x2="180" y2="300"></line><line x1="150" y1="120" x2="280" y2="200"></line><line x1="180" y1="300" x2="280" y2="200"></line><line x1="280" y1="200" x2="330" y2="90"></line><line x1="280" y1="200" x2="360" y2="330"></line><line x1="330" y1="90" x2="450" y2="160"></line><line x1="360" y1="330" x2="470" y2="270"></line><line x1="450" y1="160" x2="470" y2="270"></line><line x1="450" y1="160" x2="560" y2="110"></line><line x1="470" y1="270" x2="620" y2="230"></line><line x1="560" y1="110" x2="620" y2="230"></line><line x1="560" y1="110" x2="700" y2="150"></line><line x1="580" y1="360" x2="620" y2="230"></line><line x1="620" y1="230" x2="700" y2="150"></line><line x1="620" y1="230" x2="720" y2="300"></line><line x1="700" y1="150" x2="800" y2="210"></line><line x1="720" y1="300" x2="800" y2="210"></line><line x1="720" y1="300" x2="880" y2="330"></line><line x1="800" y1="210" x2="860" y2="110"></line><line x1="800" y1="210" x2="960" y2="250"></line><line x1="860" y1="110" x2="1010" y2="140"></line><line x1="880" y1="330" x2="960" y2="250"></line><line x1="960" y1="250" x2="1010" y2="140"></line><line x1="960" y1="250" x2="1050" y2="340"></line><line x1="1010" y1="140" x2="1120" y2="210"></line><line x1="1050" y1="340" x2="1120" y2="210"></line><line x1="360" y1="330" x2="580" y2="360"></line><line x1="580" y1="360" x2="720" y2="300"></line>
  </g>
  <g stroke="#2F6CFF" stroke-width="1.6" opacity="0.5">
    <line x1="280" y1="200" x2="450" y2="160"></line><line x1="450" y1="160" x2="620" y2="230"></line><line x1="620" y1="230" x2="800" y2="210"></line><line x1="800" y1="210" x2="960" y2="250"></line>
  </g>
  <g fill="#54575d">
    <circle cx="70" cy="210" r="3.5"></circle><circle cx="150" cy="120" r="3.5"></circle><circle cx="180" cy="300" r="3.5"></circle><circle cx="330" cy="90" r="3.5"></circle><circle cx="360" cy="330" r="3.5"></circle><circle cx="470" cy="270" r="3.5"></circle><circle cx="560" cy="110" r="3.5"></circle><circle cx="580" cy="360" r="3.5"></circle><circle cx="700" cy="150" r="3.5"></circle><circle cx="720" cy="300" r="3.5"></circle><circle cx="860" cy="110" r="3.5"></circle><circle cx="880" cy="330" r="3.5"></circle><circle cx="1010" cy="140" r="3.5"></circle><circle cx="1050" cy="340" r="3.5"></circle><circle cx="1120" cy="210" r="3.5"></circle>
  </g>
  <g fill="#2F6CFF">
    <circle cx="450" cy="160" r="4"></circle><circle cx="800" cy="210" r="4"></circle>
  </g>
  <g fill="url(#hubGlow)">
    <circle cx="280" cy="200" r="26"></circle><circle cx="620" cy="230" r="26"></circle><circle cx="960" cy="250" r="26"></circle>
  </g>
  <g fill="none" stroke="#2F6CFF" stroke-width="1">
    <circle cx="280" cy="200" r="10" opacity="0.7"></circle><circle cx="280" cy="200" r="16" opacity="0.3"></circle>
    <circle cx="620" cy="230" r="10" opacity="0.7"></circle><circle cx="620" cy="230" r="16" opacity="0.3"></circle>
    <circle cx="960" cy="250" r="10" opacity="0.7"></circle><circle cx="960" cy="250" r="16" opacity="0.3"></circle>
  </g>
  <g fill="#2F6CFF">
    <circle cx="280" cy="200" r="5.5"></circle><circle cx="620" cy="230" r="5.5"></circle><circle cx="960" cy="250" r="5.5"></circle>
  </g>
  <g fill="#FFFFFF">
    <circle cx="280" cy="200" r="2"></circle><circle cx="620" cy="230" r="2"></circle><circle cx="960" cy="250" r="2"></circle>
  </g>
  <g fill="#C4C6CA" font-family="Helvetica Neue,Helvetica,Arial,sans-serif" font-size="12.5" letter-spacing="1.6">
    <text x="252" y="172">ACQUIRED</text><text x="640" y="226">MODERNIZED</text><text x="900" y="292">LIGHTS-OUT</text>
  </g>
</svg>