<svg width="339" height="96" viewBox="0 0 339 96" fill="none" xmlns="http://www.w3.org/2000/svg">
<path d="M0 73L20.7335 40.8374H36.0154L15.1856 73L0 73Z" fill="white"/>
<path d="M22.9846 73L43.7181 40.8374L59 40.8374L38.1702 73L22.9846 73Z" fill="white"/>
<path d="M0 9L20.7335 41.1626H36.0154L15.1856 9H0Z" fill="white"/>
<path d="M22.9846 9L43.7181 41.1626H59L38.1702 9H22.9846Z" fill="white"/>
<path d="M76.536 73L67.992 64.456V54.28H79.32V60.904L82.776 64.36H100.728L104.376 60.712V46.888L101.592 44.104H75.864L68.28 36.424V15.688L77.112 6.75999H106.968L115.512 15.304V25.384H104.184V18.856L100.632 15.4H83.256L79.608 19.048V32.2L82.296 34.984H108.12L115.704 42.568V64.072L106.872 73H76.536ZM140.636 73V15.976H122.3V6.75999H170.396V15.976H152.06V73H140.636ZM179.604 73V6.75999H218.964L227.796 15.688V35.944L219.732 44.104L228.852 73H217.236L208.884 45.736H190.932V73H179.604ZM190.932 37.288H212.244L216.468 33.064V19.048L212.532 15.016H190.932V37.288ZM234.311 73L253.511 6.75999H269.831L289.031 73H277.607L272.999 56.104H249.671L245.159 73H234.311ZM261.383 13.192L252.167 47.176H270.599L261.383 13.192ZM306.386 73V15.976H288.05V6.75999H336.146V15.976H317.81V73H306.386Z" fill="white"/>
</svg>
