<svg width="798" height="82.142" viewBox="0 19 798 82.142" fill="none" xmlns="http://www.w3.org/2000/svg">
<path d="M168.544 25.72H183.52V91H168.544V64.6H135.136V91H120.16V25.72H135.136V51.736H168.544V25.72ZM264.168 25.72L236.712 61.72V91H221.64V61.72L194.184 25.72H212.904L229.608 47.896L246.216 25.72H264.168ZM311.712 25.72C327.552 25.72 336.096 33.208 336.096 47.224C336.096 61.24 327.552 68.728 311.712 68.728H289.824V91H274.848V25.72H311.712ZM309.984 55.864C317.375 55.864 320.736 53.176 320.736 47.224C320.736 41.272 317.375 38.584 309.984 38.584H289.824V55.864H309.984ZM407.481 38.584H363.417V51.736H401.241V64.6H363.417V78.136H407.481V91H348.441V25.72H407.481V38.584ZM485.817 91H468.153L451.929 67H435.417V91H420.441V25.72H459.321C474.489 25.72 482.649 32.92 482.649 46.36C482.649 56.728 477.849 63.352 468.633 65.848L485.817 91ZM435.417 38.584V54.136H457.689C464.313 54.136 467.385 51.64 467.385 46.36C467.385 41.08 464.313 38.584 457.689 38.584H435.417ZM549.351 57.496C557.511 59.704 561.543 64.792 561.543 72.856C561.543 84.856 553.383 91 537.639 91H497.223V25.72H536.295C551.559 25.72 559.431 31.672 559.431 43.288C559.431 50.392 556.071 55.192 549.351 57.496ZM512.199 38.584V51.736H536.007C541.767 51.736 544.551 49.624 544.551 45.304C544.551 40.792 541.767 38.584 536.199 38.584H512.199ZM537.542 78.136C543.399 78.136 546.279 75.928 546.279 71.32C546.279 66.808 543.302 64.6 537.351 64.6H512.199V78.136H537.542ZM604.329 92.152C584.457 92.152 573.321 83.032 573.321 66.904V25.72H588.297V64.504C588.297 74.392 593.577 79 604.713 79C615.849 79 621.129 74.392 621.129 64.504V25.72H635.433V66.904C635.433 83.032 624.201 92.152 604.329 92.152ZM650.598 91V25.72H665.574V91H650.598ZM696.886 78.136H739.03V91H681.91V25.72H696.886V78.136ZM794.472 25.72V38.584H770.28V91H755.304V38.584H731.112V25.72H794.472Z" fill="white"/>
<path d="M0 19L44.4495 47.8659V69.1419L5.42251e-07 40.1419L0 19Z" fill="white"/>
<path d="M0 51L44.4495 79.8659V101.142L5.42251e-07 72.1419L0 51Z" fill="white"/>
<path d="M88.4496 19L44 47.8659V69.1419L88.4496 40.1419V19Z" fill="white"/>
<path d="M88.4496 51L44 79.8659V101.142L88.4496 72.1419V51Z" fill="white"/>
</svg>
